




{
    "asset" : {
        "generator" : "Khronos glTF Blender I/O v3.3.27",
        "version" : "2.0"
    },
    "scene" : 0,
    "scenes" : [
        {
            "name" : "Scene",
            "nodes" : [
                1,
                2,
                3,
                4,
                5,
                6,
                7
            ]
        }
    ],
    "nodes" : [
        {
            "mesh" : 0,
            "name" : "Icing"
        },
        {
            "children" : [
                0
            ],
            "mesh" : 1,
            "name" : "Donut",
            "rotation" : [
                0.5,
                0,
                0,
                0.8660253882408142
            ]
        },
        {
            "mesh" : 2,
            "name" : "Sprinkle",
            "translation" : [
                -0.054746124893426895,
                0.0534602552652359,
                0.08939199149608612
            ]
        },
        {
            "mesh" : 3,
            "name" : "Sprinkle.001",
            "translation" : [
                -0.051508087664842606,
                0.055716946721076965,
                0.09135188907384872
            ]
        },
        {
            "mesh" : 4,
            "name" : "Sprinkle.002",
            "translation" : [
                -0.056086186319589615,
                0.053019482642412186,
                0.09997252374887466
            ]
        },
        {
            "mesh" : 5,
            "name" : "Sprinkle.003",
            "translation" : [
                -0.045052073895931244,
                0.05975811928510666,
                0.09413477033376694
            ]
        },
        {
            "mesh" : 6,
            "name" : "Sprinkle.004",
            "translation" : [
                -0.06240249052643776,
                0.0534602552652359,
                0.09364975243806839
            ]
        },
        {
            "mesh" : 7,
            "name" : "Sphere",
            "translation" : [
                -0.06766176968812943,
                0.049805790185928345,
                0.08717947453260422
            ]
        }
    ],
    "materials" : [
        {
            "doubleSided" : true,
            "name" : "Material.001",
            "pbrMetallicRoughness" : {
                "baseColorFactor" : [
                    0.6628120541572571,
                    0.8000000715255737,
                    0.1864863634109497,
                    1
                ],
                "metallicFactor" : 0,
                "roughnessFactor" : 0.10544200241565704
            }
        },
        {
            "doubleSided" : true,
            "name" : "Material.002",
            "pbrMetallicRoughness" : {
                "baseColorTexture" : {
                    "index" : 0
                },
                "metallicFactor" : 0,
                "roughnessFactor" : 0.5
            }
        },
        {
            "doubleSided" : true,
            "name" : "Sprinkles",
            "pbrMetallicRoughness" : {
                "metallicFactor" : 0,
                "roughnessFactor" : 0.5
            }
        },
        {
            "doubleSided" : true,
            "name" : "Material",
            "pbrMetallicRoughness" : {
                "baseColorFactor" : [
                    0.5799800157546997,
                    0.46450579166412354,
                    0.8000000715255737,
                    1
                ],
                "metallicFactor" : 0,
                "roughnessFactor" : 0.5
            }
        }
    ],
    "meshes" : [
        {
            "name" : "Torus.001",
            "primitives" : [
                {
                    "attributes" : {
                        "POSITION" : 0,
                        "NORMAL" : 1,
                        "TEXCOORD_0" : 2
                    },
                    "indices" : 3,
                    "material" : 0
                }
            ]
        },
        {
            "name" : "Torus",
            "primitives" : [
                {
                    "attributes" : {
                        "POSITION" : 4,
                        "NORMAL" : 5,
                        "TEXCOORD_0" : 6
                    },
                    "indices" : 7,
                    "material" : 1
                }
            ]
        },
        {
            "name" : "Cylinder",
            "primitives" : [
                {
                    "attributes" : {
                        "POSITION" : 8,
                        "NORMAL" : 9,
                        "TEXCOORD_0" : 10
                    },
                    "indices" : 11,
                    "material" : 2
                }
            ]
        },
        {
            "name" : "Cylinder.001",
            "primitives" : [
                {
                    "attributes" : {
                        "POSITION" : 12,
                        "NORMAL" : 13,
                        "TEXCOORD_0" : 14
                    },
                    "indices" : 15,
                    "material" : 2
                }
            ]
        },
        {
            "name" : "Cylinder.002",
            "primitives" : [
                {
                    "attributes" : {
                        "POSITION" : 16,
                        "NORMAL" : 17,
                        "TEXCOORD_0" : 18
                    },
                    "indices" : 11,
                    "material" : 2
                }
            ]
        },
        {
            "name" : "Cylinder.005",
            "primitives" : [
                {
                    "attributes" : {
                        "POSITION" : 19,
                        "NORMAL" : 20,
                        "TEXCOORD_0" : 21
                    },
                    "indices" : 22,
                    "material" : 2
                }
            ]
        },
        {
            "name" : "Cylinder.006",
            "primitives" : [
                {
                    "attributes" : {
                        "POSITION" : 23,
                        "NORMAL" : 24,
                        "TEXCOORD_0" : 25
                    },
                    "indices" : 26,
                    "material" : 2
                }
            ]
        },
        {
            "name" : "Sphere",
            "primitives" : [
                {
                    "attributes" : {
                        "POSITION" : 27,
                        "NORMAL" : 28,
                        "TEXCOORD_0" : 29
                    },
                    "indices" : 30,
                    "material" : 3
                }
            ]
        }
    ],
    "textures" : [
        {
            "sampler" : 0,
            "source" : 0
        }
    ],
    "images" : [
        {
            "bufferView" : 8,
            "mimeType" : "image/png",
            "name" : "Donut Base V2"
        }
    ],
    "accessors" : [
        {
            "bufferView" : 0,
            "componentType" : 5126,
            "count" : 11324,
            "max" : [
                0.03242342546582222,
                0.017796915024518967,
                0.046349380165338516
            ],
            "min" : [
                -0.07556478679180145,
                -0.01805134303867817,
                -0.06307657063007355
            ],
            "type" : "VEC3"
        },
        {
            "bufferView" : 1,
            "componentType" : 5126,
            "count" : 11324,
            "type" : "VEC3"
        },
        {
            "bufferView" : 2,
            "componentType" : 5126,
            "count" : 11324,
            "type" : "VEC2"
        },
        {
            "bufferView" : 3,
            "componentType" : 5123,
            "count" : 67536,
            "type" : "SCALAR"
        },
        {
            "bufferView" : 4,
            "componentType" : 5126,
            "count" : 2673,
            "max" : [
                0.03040267340838909,
                0.015860281884670258,
                0.04383433982729912
            ],
            "min" : [
                -0.07380767911672592,
                -0.027234770357608795,
                -0.06064425781369209
            ],
            "type" : "VEC3"
        },
        {
            "bufferView" : 5,
            "componentType" : 5126,
            "count" : 2673,
            "type" : "VEC3"
        },
        {
            "bufferView" : 6,
            "componentType" : 5126,
            "count" : 2673,
            "type" : "VEC2"
        },
        {
            "bufferView" : 7,
            "componentType" : 5123,
            "count" : 15360,
            "type" : "SCALAR"
        },
        {
            "bufferView" : 9,
            "componentType" : 5126,
            "count" : 52,
            "max" : [
                0.0010000000474974513,
                0.0010009926045313478,
                0.0032706311903893948
            ],
            "min" : [
                -0.0010000000474974513,
                -0.0010009926045313478,
                -0.0032706311903893948
            ],
            "type" : "VEC3"
        },
        {
            "bufferView" : 10,
            "componentType" : 5126,
            "count" : 52,
            "type" : "VEC3"
        },
        {
            "bufferView" : 11,
            "componentType" : 5126,
            "count" : 52,
            "type" : "VEC2"
        },
        {
            "bufferView" : 12,
            "componentType" : 5123,
            "count" : 180,
            "type" : "SCALAR"
        },
        {
            "bufferView" : 13,
            "componentType" : 5126,
            "count" : 61,
            "max" : [
                0.0012314639752730727,
                0.0010473837610334158,
                0.005042306147515774
            ],
            "min" : [
                -0.0011305217631161213,
                -0.0010389086091890931,
                -0.004569774493575096
            ],
            "type" : "VEC3"
        },
        {
            "bufferView" : 14,
            "componentType" : 5126,
            "count" : 61,
            "type" : "VEC3"
        },
        {
            "bufferView" : 15,
            "componentType" : 5126,
            "count" : 61,
            "type" : "VEC2"
        },
        {
            "bufferView" : 16,
            "componentType" : 5123,
            "count" : 228,
            "type" : "SCALAR"
        },
        {
            "bufferView" : 17,
            "componentType" : 5126,
            "count" : 52,
            "max" : [
                0.0010165207786485553,
                0.0010112799936905503,
                0.0016934003215283155
            ],
            "min" : [
                -0.001016520895063877,
                -0.0010112790623679757,
                -0.0016990476287901402
            ],
            "type" : "VEC3"
        },
        {
            "bufferView" : 18,
            "componentType" : 5126,
            "count" : 52,
            "type" : "VEC3"
        },
        {
            "bufferView" : 19,
            "componentType" : 5126,
            "count" : 52,
            "type" : "VEC2"
        },
        {
            "bufferView" : 20,
            "componentType" : 5126,
            "count" : 70,
            "max" : [
                0.0014385189861059189,
                0.0010009956313297153,
                0.004866922739893198
            ],
            "min" : [
                -0.0013165930286049843,
                -0.0010009895777329803,
                -0.004940867889672518
            ],
            "type" : "VEC3"
        },
        {
            "bufferView" : 21,
            "componentType" : 5126,
            "count" : 70,
            "type" : "VEC3"
        },
        {
            "bufferView" : 22,
            "componentType" : 5126,
            "count" : 70,
            "type" : "VEC2"
        },
        {
            "bufferView" : 23,
            "componentType" : 5123,
            "count" : 276,
            "type" : "SCALAR"
        },
        {
            "bufferView" : 24,
            "componentType" : 5126,
            "count" : 70,
            "max" : [
                0.0016974505269899964,
                0.0010429139947518706,
                0.00400473503395915
            ],
            "min" : [
                -0.0014105222653597593,
                -0.0010009931866079569,
                -0.004337016027420759
            ],
            "type" : "VEC3"
        },
        {
            "bufferView" : 25,
            "componentType" : 5126,
            "count" : 70,
            "type" : "VEC3"
        },
        {
            "bufferView" : 26,
            "componentType" : 5126,
            "count" : 70,
            "type" : "VEC2"
        },
        {
            "bufferView" : 27,
            "componentType" : 5123,
            "count" : 276,
            "type" : "SCALAR"
        },
        {
            "bufferView" : 28,
            "componentType" : 5126,
            "count" : 559,
            "max" : [
                0.0013001833576709032,
                0.0013001835905015469,
                0.0013001831248402596
            ],
            "min" : [
                -0.001300182892009616,
                -0.0013001835905015469,
                -0.0013001835905015469
            ],
            "type" : "VEC3"
        },
        {
            "bufferView" : 29,
            "componentType" : 5126,
            "count" : 559,
            "type" : "VEC3"
        },
        {
            "bufferView" : 30,
            "componentType" : 5126,
            "count" : 559,
            "type" : "VEC2"
        },
        {
            "bufferView" : 31,
            "componentType" : 5123,
            "count" : 2880,
            "type" : "SCALAR"
        }
    ],
    "bufferViews" : [
        {
            "buffer" : 0,
            "byteLength" : 135888,
            "byteOffset" : 0,
            "target" : 34962
        },
        {
            "buffer" : 0,
            "byteLength" : 135888,
            "byteOffset" : 135888,
            "target" : 34962
        },
        {
            "buffer" : 0,
            "byteLength" : 90592,
            "byteOffset" : 271776,
            "target" : 34962
        },
        {
            "buffer" : 0,
            "byteLength" : 135072,
            "byteOffset" : 362368,
            "target" : 34963
        },
        {
            "buffer" : 0,
            "byteLength" : 32076,
            "byteOffset" : 497440,
            "target" : 34962
        },
        {
            "buffer" : 0,
            "byteLength" : 32076,
            "byteOffset" : 529516,
            "target" : 34962
        },
        {
            "buffer" : 0,
            "byteLength" : 21384,
            "byteOffset" : 561592,
            "target" : 34962
        },
        {
            "buffer" : 0,
            "byteLength" : 30720,
            "byteOffset" : 582976,
            "target" : 34963
        },
        {
            "buffer" : 0,
            "byteLength" : 30300,
            "byteOffset" : 613696
        },
        {
            "buffer" : 0,
            "byteLength" : 624,
            "byteOffset" : 643996,
            "target" : 34962
        },
        {
            "buffer" : 0,
            "byteLength" : 624,
            "byteOffset" : 644620,
            "target" : 34962
        },
        {
            "buffer" : 0,
            "byteLength" : 416,
            "byteOffset" : 645244,
            "target" : 34962
        },
        {
            "buffer" : 0,
            "byteLength" : 360,
            "byteOffset" : 645660,
            "target" : 34963
        },
        {
            "buffer" : 0,
            "byteLength" : 732,
            "byteOffset" : 646020,
            "target" : 34962
        },
        {
            "buffer" : 0,
            "byteLength" : 732,
            "byteOffset" : 646752,
            "target" : 34962
        },
        {
            "buffer" : 0,
            "byteLength" : 488,
            "byteOffset" : 647484,
            "target" : 34962
        },
        {
            "buffer" : 0,
            "byteLength" : 456,
            "byteOffset" : 647972,
            "target" : 34963
        },
        {
            "buffer" : 0,
            "byteLength" : 624,
            "byteOffset" : 648428,
            "target" : 34962
        },
        {
            "buffer" : 0,
            "byteLength" : 624,
            "byteOffset" : 649052,
            "target" : 34962
        },
        {
            "buffer" : 0,
            "byteLength" : 416,
            "byteOffset" : 649676,
            "target" : 34962
        },
        {
            "buffer" : 0,
            "byteLength" : 840,
            "byteOffset" : 650092,
            "target" : 34962
        },
        {
            "buffer" : 0,
            "byteLength" : 840,
            "byteOffset" : 650932,
            "target" : 34962
        },
        {
            "buffer" : 0,
            "byteLength" : 560,
            "byteOffset" : 651772,
            "target" : 34962
        },
        {
            "buffer" : 0,
            "byteLength" : 552,
            "byteOffset" : 652332,
            "target" : 34963
        },
        {
            "buffer" : 0,
            "byteLength" : 840,
            "byteOffset" : 652884,
            "target" : 34962
        },
        {
            "buffer" : 0,
            "byteLength" : 840,
            "byteOffset" : 653724,
            "target" : 34962
        },
        {
            "buffer" : 0,
            "byteLength" : 560,
            "byteOffset" : 654564,
            "target" : 34962
        },
        {
            "buffer" : 0,
            "byteLength" : 552,
            "byteOffset" : 655124,
            "target" : 34963
        },
        {
            "buffer" : 0,
            "byteLength" : 6708,
            "byteOffset" : 655676,
            "target" : 34962
        },
        {
            "buffer" : 0,
            "byteLength" : 6708,
            "byteOffset" : 662384,
            "target" : 34962
        },
        {
            "buffer" : 0,
            "byteLength" : 4472,
            "byteOffset" : 669092,
            "target" : 34962
        },
        {
            "buffer" : 0,
            "byteLength" : 5760,
            "byteOffset" : 673564,
            "target" : 34963
        }
    ],
    "samplers" : [
        {
            "magFilter" : 9729,
            "minFilter" : 9987
        }
    ],
    "buffers" : [
        {
            "byteLength" : 679324,
            "uri" : "data:application/octet-stream;base64,"
        }
    ]
}
